<svg id="Capa_1" enable-background="new 0 0 512 512" height="512" viewBox="0 0 512 512" width="512" xmlns="http://www.w3.org/2000/svg"><g><g><path d="m442.5 103.702h-432.5v284.783c0 20.908 16.944 37.852 37.852 37.852h329.952l-32.047-100.656 96.743 30.796z" fill="#eaf0f0"/><path d="m47.853 30.48h356.808c20.903 0 37.848 16.945 37.848 37.848v35.372h-432.504v-35.372c0-20.902 16.945-37.848 37.848-37.848z" fill="#f574a9"/><path d="m345.761 325.681 49.609 155.839 17.81-56.168 55.975 55.974 32.845-32.846-55.974-55.974 55.573-17.216z" fill="#5c90ae"/><g fill="#ffc135"><circle cx="109.131" cy="194.388" r="50.462"/><circle cx="109.131" cy="334.508" r="50.462"/></g></g><g><g><path d="m63.979 63.26c-2.092-5.021-8.028-7.494-13.06-5.4-5.031 2.094-7.497 8.019-5.41 13.06 2.081 5.028 8.04 7.484 13.06 5.4 5.049-2.096 7.481-8.01 5.41-13.06z"/><path d="m98.189 63.27c-2.065-5.042-8.04-7.491-13.06-5.41-5.035 2.087-7.491 8.011-5.41 13.05 2.078 5.033 8.029 7.505 13.061 5.41 5.017-2.089 7.507-8.018 5.409-13.05z"/><path d="m134.399 63.27c-2.066-5.044-8.041-7.483-13.06-5.41-5.039 2.081-7.489 8.016-5.41 13.05 2.079 5.033 8.029 7.504 13.061 5.41 5.017-2.088 7.507-8.019 5.409-13.05z"/><path d="m509.071 441.409-44.256-44.255 39.743-12.312c4.126-1.278 7.025-5.195 7.041-9.513s-2.851-8.258-6.967-9.568l-52.132-16.595v-72.829c0-5.523-4.478-10-10-10s-10 4.477-10 10v66.462l-83.706-26.647c-7.598-2.415-14.976 4.995-12.565 12.563l27.897 87.622h-316.273c-15.359 0-27.853-12.494-27.853-27.852v-274.783h412.5v74.581c0 5.523 4.478 10 10 10s10-4.477 10-10l.009-119.954c0-26.383-21.464-47.848-47.848-47.848h-356.808c-26.384 0-47.848 21.465-47.848 47.848l-.005 320.156c0 26.386 21.467 47.853 47.853 47.853h322.64l15.349 48.215c1.306 4.103 5.226 6.968 9.531 6.967 4.307-.001 8.228-2.871 9.529-6.978l12.839-40.488 44.342 44.342c3.906 3.906 10.236 3.906 14.143 0l32.846-32.845c1.875-1.875 2.929-4.419 2.929-7.071s-1.055-5.195-2.93-7.071zm-489.066-373.08c0-15.355 12.492-27.848 27.848-27.848h356.809c15.355 0 27.848 12.493 27.848 27.848v25.371h-412.505zm449.149 398.855-48.902-48.903c-5.212-5.212-14.381-2.958-16.604 4.048l-8.297 26.166-34.195-107.416 107.068 34.082-25.158 7.793c-7.053 2.186-9.344 11.391-4.112 16.624l48.903 48.903z"/><path d="m117.204 134.477c-2.731-.366-5.448-.551-8.073-.551-33.339 0-60.463 27.124-60.463 60.462s27.124 60.462 60.463 60.462c28.638 0 53.554-20.347 59.244-48.381 1.099-5.412-2.397-10.69-7.811-11.79-5.412-1.097-10.69 2.397-11.789 7.811-3.807 18.75-20.479 32.36-39.645 32.36-22.312 0-40.463-18.151-40.463-40.462s18.151-40.462 40.463-40.462c1.741 0 3.566.126 5.423.374 5.468.734 10.505-3.111 11.237-8.586.732-5.474-3.111-10.506-8.586-11.237z"/><path d="m109.131 394.971c33.339 0 60.462-27.124 60.462-60.462 0-33.339-27.123-60.463-60.462-60.463s-60.463 27.124-60.463 60.463c0 33.338 27.124 60.462 60.463 60.462zm0-100.926c22.311 0 40.462 18.151 40.462 40.463 0 22.311-18.151 40.462-40.462 40.462-22.312 0-40.463-18.151-40.463-40.462s18.151-40.463 40.463-40.463z"/><path d="m366.679 159.058h-163.14c-5.522 0-10 4.477-10 10s4.478 10 10 10h163.14c5.522 0 10-4.477 10-10s-4.478-10-10-10z"/><path d="m376.679 217.099c0-5.523-4.478-10-10-10h-163.14c-5.522 0-10 4.477-10 10s4.478 10 10 10h163.14c5.522 0 10-4.477 10-10z"/><path d="m203.539 321.13h92.078c5.522 0 10-4.477 10-10s-4.478-10-10-10h-92.078c-5.522 0-10 4.477-10 10s4.478 10 10 10z"/><path d="m203.539 369.172h102.087c5.522 0 10-4.477 10-10s-4.478-10-10-10h-102.087c-5.522 0-10 4.477-10 10s4.478 10 10 10z"/><path d="m101.55 181.438c-3.906-3.905-10.236-3.905-14.143 0-3.905 3.905-3.905 10.237 0 14.143l15.328 15.328c1.953 1.953 4.512 2.929 7.071 2.929s5.118-.977 7.071-2.929l48.583-48.583c3.905-3.905 3.905-10.237 0-14.142-3.904-3.905-10.234-3.905-14.143 0l-41.512 41.512z"/><path d="m450.81 226.68c-2.327-3.559-6.898-5.211-10.973-4.075-4.037 1.125-6.981 4.714-7.304 8.892-.718 9.276 11.09 14.291 17.34 7.487 3.078-3.353 3.46-8.522.937-12.304z"/></g></g></g></svg>