<svg id="Capa_1" enable-background="new 0 0 512 512" height="512" viewBox="0 0 512 512" width="512" xmlns="http://www.w3.org/2000/svg"><g><g><path d="m482 136h-432v260c0 11.05 8.95 20 20 20h412c11.05 0 20-8.95 20-20v-240c0-11.05-8.95-20-20-20z" fill="#aaf9dd"/><path d="m462 356c0 11.05-8.95 20-20 20-14.15 0-387.902 0-412 0-11.05 0-20-8.95-20-20v-240c0-11.05 8.95-20 20-20h412c11.05 0 20 8.95 20 20z" fill="#ff9256"/><path d="m150 136c-23.456 0-55.045 0-80 0-11.05 0-20 8.95-20 20v40c0 11.05 8.95 20 20 20h80c11.05 0 20-8.95 20-20 0-13.99 0-26.01 0-40 0-11.05-8.95-20-20-20z" fill="#fff2a0"/></g><g><path d="m482 126h-10v-10c0-16.542-13.458-30-30-30h-161c-5.522 0-10 4.478-10 10s4.478 10 10 10h161c5.514 0 10 4.486 10 10v240c0 5.514-4.486 10-10 10h-412c-5.514 0-10-4.486-10-10v-240c0-5.514 4.486-10 10-10h161c5.523 0 10-4.478 10-10s-4.477-10-10-10h-161c-16.542 0-30 13.458-30 30v240c0 16.542 13.458 30 30 30h10v10c0 16.542 13.458 30 30 30h412c16.542 0 30-13.458 30-30v-240c0-16.542-13.458-30-30-30zm10 270c0 5.514-4.486 10-10 10h-412c-5.514 0-10-4.486-10-10v-10h382c16.542 0 30-13.458 30-30v-210h10c5.514 0 10 4.486 10 10z"/><path d="m180 156c0-16.542-13.458-30-30-30h-80c-16.542 0-30 13.458-30 30v40c0 16.542 13.458 30 30 30h80c16.542 0 30-13.458 30-30zm-100 50h-10c-5.514 0-10-4.486-10-10v-10h20zm0-40h-20v-10c0-5.514 4.486-10 10-10h10zm40 40h-20v-60h20zm40-10c0 5.514-4.486 10-10 10h-10v-20h20zm0-30h-20v-20h10c5.514 0 10 4.486 10 10z"/><path d="m50 266h40c5.523 0 10-4.478 10-10s-4.477-10-10-10h-40c-5.523 0-10 4.478-10 10s4.477 10 10 10z"/><path d="m130 246c-5.523 0-10 4.478-10 10s4.477 10 10 10h40c5.523 0 10-4.478 10-10s-4.477-10-10-10z"/><path d="m200 256c0 5.522 4.477 10 10 10h40c5.522 0 10-4.478 10-10s-4.478-10-10-10h-40c-5.523 0-10 4.478-10 10z"/><path d="m280 256c0 5.522 4.478 10 10 10h40c5.522 0 10-4.478 10-10s-4.478-10-10-10h-40c-5.522 0-10 4.478-10 10z"/><path d="m40 296c0 5.522 4.477 10 10 10h280c5.522 0 10-4.478 10-10s-4.478-10-10-10h-280c-5.523 0-10 4.478-10 10z"/><path d="m312 156v-20c0-5.522-4.478-10-10-10s-10 4.478-10 10v20c0 5.522 4.478 10 10 10s10-4.478 10-10z"/><path d="m352 156v-20c0-5.522-4.478-10-10-10s-10 4.478-10 10v20c0 5.522 4.478 10 10 10s10-4.478 10-10z"/><path d="m392 156v-20c0-5.522-4.478-10-10-10s-10 4.478-10 10v20c0 5.522 4.478 10 10 10s10-4.478 10-10z"/><path d="m432 156v-20c0-5.522-4.478-10-10-10s-10 4.478-10 10v20c0 5.522 4.478 10 10 10s10-4.478 10-10z"/><path d="m50 326c-5.523 0-10 4.478-10 10s4.477 10 10 10h120c5.523 0 10-4.478 10-10s-4.477-10-10-10z"/><circle cx="236" cy="96" r="10"/></g></g></svg>